<?xml version="1.0" encoding="UTF-8" standalone="no"?>
<svg
   xml:space="preserve"
   width="64"
   height="64"
   viewBox="0 0 64 64"
   version="1.1"
   id="svg1"
   sodipodi:docname="broken-image.svg"
   inkscape:version="1.3.2 (091e20e, 2023-11-25)"
   xmlns:inkscape="http://www.inkscape.org/namespaces/inkscape"
   xmlns:sodipodi="http://sodipodi.sourceforge.net/DTD/sodipodi-0.dtd"
   xmlns="http://www.w3.org/2000/svg"
   xmlns:svg="http://www.w3.org/2000/svg"><defs
     id="defs1" /><sodipodi:namedview
     id="namedview1"
     pagecolor="#ffffff"
     bordercolor="#000000"
     borderopacity="0.25"
     inkscape:showpageshadow="2"
     inkscape:pageopacity="0.0"
     inkscape:pagecheckerboard="0"
     inkscape:deskcolor="#d1d1d1"
     inkscape:zoom="0.8875"
     inkscape:cx="219.71831"
     inkscape:cy="188.73239"
     inkscape:window-width="1392"
     inkscape:window-height="942"
     inkscape:window-x="1914"
     inkscape:window-y="25"
     inkscape:window-maximized="0"
     inkscape:current-layer="svg1" /><path
     d="M 16.761904,59.357 H 0 V 4.5 H 64 V 16.690444 H 50.285713 V 33.452306 H 33.523809 v 16.76186 H 16.761904 Z M 32,31.9285 h 7.238095 L 44.064,27.102607 48.761903,31.802024 V 15.166638 H 59.428572 V 9.0714166 H 4.5714285 V 54.785582 H 15.238095 v -3.04761 H 10.666666 L 19.936,41.57876 24.761904,46.404653 32,39.166576 Z M 21.333334,59.357 V 54.785582 H 38.095238 V 38.023722 H 54.857143 V 21.26186 H 64 V 59.357 Z M 39.619047,54.785582 H 59.428572 V 22.785667 H 56.380953 V 51.737972 H 39.619047 Z M 19.936,15.040164 a 9.6502856,9.6502604 0 0 1 -9.650286,9.650259 c -0.8335239,0 -1.8956187,-0.182852 -2.6666665,-0.380947 V 12.119028 H 19.302095 c 0.198096,0.771045 0.633905,2.087613 0.633905,2.921136"
     id="path1"
     style="stroke-width:1.52381" /></svg>
